<svg xmlns="http://www.w3.org/2000/svg" viewBox="0 0 25.1 33.63"><g id="Ebene_2" data-name="Ebene 2"><g id="Ebene_3" data-name="Ebene 3"><path d="M23.26,0a49.77,49.77,0,0,1-11,1,50.34,50.34,0,0,1-9-1q-1,7-2,14l2,1a17.74,17.74,0,0,1,9-1,6.25,6.25,0,0,1,3,1c2.68,2,2.67,6.33,2,9a7.89,7.89,0,0,1-3,5,7.42,7.42,0,0,1-8,0,7.06,7.06,0,0,1-2-2,3.11,3.11,0,0,0,2-2,3,3,0,0,0-1-3,3.37,3.37,0,0,0-4,0c-1.94,1.44-1.09,4.65-1,5a7.64,7.64,0,0,0,3,4,11,11,0,0,0,4,2c2.1.59,9.13,1.94,14-3,2.93-3,5.1-8.24,3-13a10.84,10.84,0,0,0-7-6c-1.6-.41-3.07-.27-6,0a41.53,41.53,0,0,0-6,1V5a15.45,15.45,0,0,0,6,2c1.86.21,5.88.66,9-2A9.65,9.65,0,0,0,23.26,0Z"/></g></g></svg>