<svg xmlns="http://www.w3.org/2000/svg" viewBox="0 0 24.63 31.58"><g id="Ebene_2" data-name="Ebene 2"><g id="Ebene_8" data-name="Ebene 8"><path d="M24.51,21.7a9.3,9.3,0,0,0-2.69-5.13,9.89,9.89,0,0,0-4.14-2.43,7.25,7.25,0,0,0,4-2.29c.12-.14,2.55-3,1.52-6.33C22.37,2.93,20,1.81,18.58,1.11A13.57,13.57,0,0,0,10.44.26C7.64.64,3.86,1.15,2,4.12A7.23,7.23,0,0,0,1,8.8a7.2,7.2,0,0,0,1.17,2.92,10.39,10.39,0,0,0,4.54,3.86A7.51,7.51,0,0,0,.2,21.74a8.27,8.27,0,0,0,1.21,6.47,8.36,8.36,0,0,0,6,3.37l8.58,0a8.84,8.84,0,0,0,6.92-3.15A8.64,8.64,0,0,0,24.51,21.7ZM7.07,6.73c.31-1.86,2.52-3,2.92-3.15a7,7,0,0,1,5.58,0,5,5,0,0,1,2.56,1.94,4.92,4.92,0,0,1-.27,5.16,5.4,5.4,0,0,1-3.51,2.21A20.06,20.06,0,0,1,8.06,9.61a3.42,3.42,0,0,1-.9-1.4A3.55,3.55,0,0,1,7.07,6.73ZM19,24.53a5.26,5.26,0,0,1-2,3.68,5.47,5.47,0,0,1-1.89,1L9,29a6.17,6.17,0,0,1-3.73-8.27,6.82,6.82,0,0,1,4.58-3.82,21.94,21.94,0,0,1,5.84,2.38,6.5,6.5,0,0,1,2.38,2.07A5.11,5.11,0,0,1,19,24.53Z"/></g></g></svg>