<svg xmlns="http://www.w3.org/2000/svg" viewBox="0 0 25.14 31.78"><g id="Ebene_2" data-name="Ebene 2"><g id="Ebene_5" data-name="Ebene 5"><path d="M5.39,6C5.53,6.8,7,6.7,7.46,7.71,8,8.92,7,11.31,5.08,11.8a3.32,3.32,0,0,1-3.42-1.21C.31,8.64,1.91,5,3.87,3,7.52-.78,14.17-.68,18.56,1.6A9.76,9.76,0,0,1,23.1,5.87a9.33,9.33,0,0,1-.45,8.9c-1.49,2.37-3.87,3.43-6.16,4.45-1.77.79-2.31.69-5,1.93a44.5,44.5,0,0,0-4.22,2.47,5.5,5.5,0,0,0-1.71,1.53,5.14,5.14,0,0,0-.72,1.48,10.4,10.4,0,0,1,4.67-1.79,10.54,10.54,0,0,1,3.91.27c1.1.28,1.38.55,3.69,1.25a7.2,7.2,0,0,0,2.38.41,3.82,3.82,0,0,0,1.8-.32c1.46-.79,1.48-3.08,1.48-3.32l2.16.09A8.45,8.45,0,0,1,24.67,28a5.55,5.55,0,0,1-2.6,3.46,5.35,5.35,0,0,1-2.65.32,14.3,14.3,0,0,1-4.5-1c-2.14-.79-1.94-1-3.5-1.52a9.45,9.45,0,0,0-4.77-.59A8,8,0,0,0,2.2,31.26L0,31.35a16.9,16.9,0,0,1,2.43-6.2A23.29,23.29,0,0,1,8.76,19a38,38,0,0,1,3.73-2.56,10,10,0,0,0,2.12-1.35,7.56,7.56,0,0,0,1.84-2.56,7.94,7.94,0,0,0,.36-5.13,5.87,5.87,0,0,0-2.16-3.55,5.19,5.19,0,0,0-1.93-.76A7.6,7.6,0,0,0,7,4C6.54,4.29,5.26,5.13,5.39,6Z"/></g></g></svg>