<svg xmlns="http://www.w3.org/2000/svg" viewBox="0 0 27.79 34.64"><g id="Ebene_2" data-name="Ebene 2"><g id="Ebene_8" data-name="Ebene 8"><path d="M25.8,17.47a10.12,10.12,0,0,0-3.51-2.87,12.85,12.85,0,0,0-7.64-1.08,8.34,8.34,0,0,0-3.5.9A7.64,7.64,0,0,0,8.27,17.2V8.31a8.2,8.2,0,0,1,2.61-5.13A7.77,7.77,0,0,1,13.4,1.74a7.23,7.23,0,0,1,4.76-.27A6.75,6.75,0,0,1,21,3.36,4.79,4.79,0,0,0,18.43,6c-.05.12-.95,2.56.54,4.22a4.17,4.17,0,0,0,5.84,0c1.31-1.44.72-3.63.54-4.31C24.51,2.74,21.5,1.29,20.77.93A11.55,11.55,0,0,0,13.84.22,14.43,14.43,0,0,0,7.46,2.46C3.88,4.85,2.53,8.31,1.62,10.64A19.7,19.7,0,0,0,.27,21.52c.32,1.82,1.35,7.67,6.47,11A14.6,14.6,0,0,0,15,34.64a13.5,13.5,0,0,0,7.1-1.8,11.05,11.05,0,0,0,5.4-6.56A11,11,0,0,0,25.8,17.47ZM14.16,33.38c-3.45,0-6.25-4.2-6.25-9.39s2.8-9.39,6.25-9.39,6.25,4.2,6.25,9.39S17.61,33.38,14.16,33.38Z"/></g></g></svg>