<svg xmlns="http://www.w3.org/2000/svg" viewBox="0 0 24.37 31.98"><g id="Ebene_2" data-name="Ebene 2"><g id="Ebene_6" data-name="Ebene 6"><path d="M5,5.63c0,.73,1.86.75,2.21,2.06A3.27,3.27,0,0,1,4.77,11.2a3.23,3.23,0,0,1-3.19-1.13C.22,8.24,1.63,4.85,3.43,3S7.87.56,10,.23a13.93,13.93,0,0,1,6.56.36c1.76.55,4.4,1.38,5.8,4,.21.37,1.66,3.15.41,5.7-1.07,2.16-3.48,3-4.86,3.42a11,11,0,0,1-1.93.45,14.11,14.11,0,0,1,3.69,1.39,9.52,9.52,0,0,1,3.77,3.15c1.61,2.64.89,6.43-.85,8.85-2,2.75-5,3.35-8,4-2,.41-6.76,1.37-10.83-1.26A7.81,7.81,0,0,1,.32,26c-.16-.55-.84-2.81.45-4.35A3.22,3.22,0,0,1,2.84,20.5,3.23,3.23,0,0,1,5.9,22.12a2.91,2.91,0,0,1-.05,3.19,2.62,2.62,0,0,1-1.8.9,7.7,7.7,0,0,0,2.52,2,8.18,8.18,0,0,0,4.86.63c1.51-.2,4-.53,5.39-2.47,1.77-2.52.86-6.68-1.66-8.9a7.86,7.86,0,0,0-5.8-1.75l-.18-2.25A8.93,8.93,0,0,0,14.8,11.2a4.55,4.55,0,0,0,1.34-2,5.23,5.23,0,0,0-1.93-5.3C10.89,1.35,5,4.29,5,5.63Z"/></g></g></svg>